<svg id="visual" viewBox="0 0 900 600" width="900" height="600" xmlns="http://www.w3.org/2000/svg" xmlns:xlink="http://www.w3.org/1999/xlink" version="1.1"><rect x="0" y="0" width="900" height="600" fill="#002233"></rect><path d="M628 600L672 600L672 568L640 568L640 537L805 537L805 505L663 505L663 474L736 474L736 442L690 442L690 411L622 411L622 379L691 379L691 347L655 347L655 316L680 316L680 284L803 284L803 253L660 253L660 221L847 221L847 189L816 189L816 158L841 158L841 126L794 126L794 95L663 95L663 63L716 63L716 32L780 32L780 0L900 0L900 32L900 32L900 63L900 63L900 95L900 95L900 126L900 126L900 158L900 158L900 189L900 189L900 221L900 221L900 253L900 253L900 284L900 284L900 316L900 316L900 347L900 347L900 379L900 379L900 411L900 411L900 442L900 442L900 474L900 474L900 505L900 505L900 537L900 537L900 568L900 568L900 600L900 600Z" fill="#FF6D00" stroke-linecap="square" stroke-linejoin="miter"></path></svg>